<?xml version="1.0" encoding="UTF-8"?>
<svg version="1.1" xmlns="http://www.w3.org/2000/svg" width="210" height="66">
<path d="M0 0 C5.18779136 4.7472146 8.36327698 10.20450403 9.34375 17.19921875 C9.66744501 24.67552937 8.16548378 30.69298031 3.3046875 36.46875 C-2.8956951 42.46542394 -9.91987381 45.61568504 -18.578125 45.55859375 C-21.06161966 45.50695722 -23.54362078 45.43332249 -26.02636719 45.35375977 C-32.90490764 45.23755891 -38.23341573 46.62826674 -44.03515625 50.49609375 C-44.69515625 51.15609375 -45.35515625 51.81609375 -46.03515625 52.49609375 C-47.22265625 50.93359375 -47.22265625 50.93359375 -48.03515625 48.49609375 C-47.05575227 46.15404074 -46.05481052 43.82090549 -45.03515625 41.49609375 C-45.03515625 36.57780606 -47.95600915 34.10094889 -51.03515625 30.49609375 C-53.9816819 25.30459617 -53.76444228 19.65796473 -52.453125 13.97265625 C-49.81271387 6.13581957 -44.79314451 1.23650435 -37.6953125 -2.8515625 C-25.90417467 -8.47502824 -10.70100882 -7.90765527 0 0 Z M-23.03515625 4.49609375 C-24.02515625 5.98109375 -24.02515625 5.98109375 -25.03515625 7.49609375 C-22.61869843 7.66296823 -22.61869843 7.66296823 -20.03515625 7.49609375 C-19.37515625 6.83609375 -18.71515625 6.17609375 -18.03515625 5.49609375 C-15.03515625 5.18359375 -15.03515625 5.18359375 -12.03515625 5.49609375 C-10.03515625 8.49609375 -10.03515625 8.49609375 -10.18359375 10.94140625 C-11.68133339 15.43462517 -15.03607483 18.11501524 -19.03515625 20.49609375 C-21.80170062 20.79139905 -23.32576227 20.34277937 -26.03515625 19.49609375 C-26.03515625 20.81609375 -26.03515625 22.13609375 -26.03515625 23.49609375 C-22.77467996 25.12633189 -20.6571459 24.96344725 -17.03515625 24.49609375 C-12.03956266 21.2773314 -7.65088703 16.84128274 -5.03515625 11.49609375 C-5.03515625 7.84990481 -5.57829204 6.12216692 -7.72265625 3.18359375 C-13.65781653 -1.14746916 -17.54285023 0.69372805 -23.03515625 4.49609375 Z M-33.66015625 14.68359375 C-35.07167969 15.84955078 -35.07167969 15.84955078 -36.51171875 17.0390625 C-38.95406098 19.41713257 -40.54578341 21.44237964 -42.03515625 24.49609375 C-42.03515625 28.46818791 -41.27844641 30.16693648 -38.91015625 33.37109375 C-36.16513743 35.71015427 -36.16513743 35.71015427 -32.72265625 36.18359375 C-27.84212407 35.27366402 -24.52874083 32.99875258 -21.03515625 29.49609375 C-21.03515625 28.83609375 -21.03515625 28.17609375 -21.03515625 27.49609375 C-22.68515625 27.49609375 -24.33515625 27.49609375 -26.03515625 27.49609375 C-26.03515625 28.15609375 -26.03515625 28.81609375 -26.03515625 29.49609375 C-30.15684314 31.12559787 -32.74215982 31.75873976 -37.03515625 30.49609375 C-36.93654221 25.66400569 -36.19719793 23.18459294 -32.84765625 19.62109375 C-29.69981105 16.74416966 -27.41608633 15.49609375 -23.03515625 15.49609375 C-20.66015625 15.93359375 -20.66015625 15.93359375 -19.03515625 16.49609375 C-19.03515625 15.17609375 -19.03515625 13.85609375 -19.03515625 12.49609375 C-25.06816395 8.92097808 -28.48928959 10.31755895 -33.66015625 14.68359375 Z " fill="#7B14CB" transform="translate(58.03515625,10.50390625)"/>
<path d="M0 0 C0 4.62 0 9.24 0 14 C0.66 13.175 1.32 12.35 2 11.5 C6.02366618 8.14694485 7.90700467 8.56839023 13 9 C13.12375 7.88625 13.2475 6.7725 13.375 5.625 C14 2 14 2 16 0 C22.59419123 -0.68043248 28.77806562 -0.2504869 35 2 C35.99 2.33 36.98 2.66 38 3 C38.5259375 2.2265625 38.5259375 2.2265625 39.0625 1.4375 C41 0 41 0 44.625 0.25 C48 1 48 1 49 2 C49 4.31 49 6.62 49 9 C56.59 9 64.18 9 72 9 C70.98824838 14.0587581 70.12697816 15.51550219 66.9375 19.3125 C65.83728516 20.63701172 65.83728516 20.63701172 64.71484375 21.98828125 C64.14894531 22.65214844 63.58304687 23.31601562 63 24 C64.65 24 66.3 24 68 24 C68.91892116 27.67568464 68.95904856 29.16380575 68 33 C49.52 33 31.04 33 12 33 C11.67 32.34 11.34 31.68 11 31 C10.67 31.33 10.34 31.66 10 32 C4.77949113 32.59907479 4.77949113 32.59907479 2 32 C-0.5 29 -0.5 29 -2 26 C-2.33 27.98 -2.66 29.96 -3 32 C-5.97 32 -8.94 32 -12 32 C-11.5233575 27.79137679 -11.04324056 23.58315691 -10.5625 19.375 C-10.42779297 18.18519531 -10.29308594 16.99539062 -10.15429688 15.76953125 C-10.02216797 14.61582031 -9.89003906 13.46210938 -9.75390625 12.2734375 C-9.63345947 11.21560059 -9.5130127 10.15776367 -9.38891602 9.06787109 C-8.5779409 2.67068761 -8.5779409 2.67068761 -8 0 C-6 -1 -6 -1 0 0 Z M42 3 C41.67 4.32 41.34 5.64 41 7 C43.475 7.495 43.475 7.495 46 8 C46 6.35 46 4.7 46 3 C44.68 3 43.36 3 42 3 Z M18 4 C16.18202346 9.62961642 15.42049895 15.0577367 14.875 20.9375 C14.78863281 21.81212891 14.70226562 22.68675781 14.61328125 23.58789062 C14.40310303 25.72470254 14.20074482 27.86228122 14 30 C16.41696872 30.05411124 18.83271787 30.09372278 21.25 30.125 C22.27287109 30.15013672 22.27287109 30.15013672 23.31640625 30.17578125 C28.48589697 30.22708822 28.48589697 30.22708822 33 28 C34.62344752 24.36656983 35.27596315 22.82788944 34 19 C33.484375 18.484375 32.96875 17.96875 32.4375 17.4375 C31.963125 16.963125 31.48875 16.48875 31 16 C31 15.34 31 14.68 31 14 C31.99 13.67 32.98 13.34 34 13 C34.33 11.02 34.66 9.04 35 7 C32.51565563 4.65709108 31.22268407 4.02017066 27.765625 3.70703125 C26.02539062 3.75923828 26.02539062 3.75923828 24.25 3.8125 C23.07953125 3.83957031 21.9090625 3.86664062 20.703125 3.89453125 C19.81109375 3.92933594 18.9190625 3.96414062 18 4 Z M41 11 C39.35993952 17.66957927 38.48641215 24.15182898 38 31 C39.98 30.67 41.96 30.34 44 30 C44.66 23.73 45.32 17.46 46 11 C44.35 11 42.7 11 41 11 Z M51 11 C50.67 12.32 50.34 13.64 50 15 C52.64 15 55.28 15 58 15 C57.57847656 15.54269531 57.15695313 16.08539063 56.72265625 16.64453125 C56.17480469 17.35996094 55.62695312 18.07539062 55.0625 18.8125 C54.51722656 19.52019531 53.97195312 20.22789063 53.41015625 20.95703125 C51.83143752 23.04125052 51.83143752 23.04125052 51 26 C50.01 26.33 49.02 26.66 48 27 C48 27.99 48 28.98 48 30 C53.93609666 30.89316269 59.06975197 30.97040422 65 30 C65 29.01 65 28.02 65 27 C62.03 27 59.06 27 56 27 C56.47050781 26.39671875 56.94101563 25.7934375 57.42578125 25.171875 C58.04839844 24.37265625 58.67101562 23.5734375 59.3125 22.75 C59.92738281 21.96109375 60.54226562 21.1721875 61.17578125 20.359375 C61.77777344 19.58078125 62.37976563 18.8021875 63 18 C63.59167969 17.30390625 64.18335938 16.6078125 64.79296875 15.890625 C65.19128906 15.26671875 65.58960938 14.6428125 66 14 C65.67 13.01 65.34 12.02 65 11 C60.38 11 55.76 11 51 11 Z M10 13 C9.01 13.99 8.02 14.98 7 16 C7.33 16.66 7.66 17.32 8 18 C8.99 17.01 9.98 16.02 11 15 C10.67 14.34 10.34 13.68 10 13 Z M5 18 C6 20 6 20 6 20 Z M5 21 C5.33 21.99 5.66 22.98 6 24 C6 23.01 6 22.02 6 21 C5.67 21 5.34 21 5 21 Z M7 24 C8 26 8 26 8 26 Z M8 26 C9 28 9 28 9 28 Z " fill="#6B1BA7" transform="translate(135,17)"/>
<path d="M0 0 C2.33294775 -0.04241723 4.66702567 -0.04092937 7 0 C7.33 0.33 7.66 0.66 8 1 C7.93444486 3.16927914 7.7960474 5.33648152 7.625 7.5 C7.52574219 8.76070312 7.42648438 10.02140625 7.32421875 11.3203125 C6.95085853 15.5577261 6.50967746 19.77695816 6 24 C8.97 24.33 11.94 24.66 15 25 C15.19916016 23.39318359 15.19916016 23.39318359 15.40234375 21.75390625 C15.5805056 20.35674231 15.75890319 18.95960841 15.9375 17.5625 C16.02451172 16.85544922 16.11152344 16.14839844 16.20117188 15.41992188 C16.88671875 10.11328125 16.88671875 10.11328125 18 9 C20.64 9 23.28 9 26 9 C25.67 14.28 25.34 19.56 25 25 C25.66 19.72 26.32 14.44 27 9 C28.340625 9.020625 29.68125 9.04125 31.0625 9.0625 C34.1975432 9.08714657 36.6958798 8.86310561 39.8125 8.25 C43 8 43 8 45.375 9.5 C49.89473846 16.45344379 47.39585799 24.32854904 46 32 C43.36 32 40.72 32 38 32 C38.33 26.72 38.66 21.44 39 16 C38.01 16.33 37.02 16.66 36 17 C34.4304448 22.05745565 33.75757901 26.6969469 33 32 C20.79 32 8.58 32 -4 32 C-2.53515625 17.3515625 -2.53515625 17.3515625 -2.26611328 14.69238281 C-2.08440705 12.85398247 -1.91128044 11.01471903 -1.74560547 9.17480469 C-1.6632666 8.27922852 -1.58092773 7.38365234 -1.49609375 6.4609375 C-1.38865845 5.24736572 -1.38865845 5.24736572 -1.27905273 4.00927734 C-1 2 -1 2 0 0 Z " fill="#60239A" transform="translate(76,17)"/>
<path d="M0 0 C0.33 0.66 0.66 1.32 1 2 C0.33613281 2.36351562 -0.32773437 2.72703125 -1.01171875 3.1015625 C-7.38772075 6.73169502 -12.26983385 9.72903041 -15.1171875 16.7578125 C-16.07670727 20.28171255 -16.19936681 23.23102649 -16.125 26.875 C-16.10695313 28.02742188 -16.08890625 29.17984375 -16.0703125 30.3671875 C-16.04710937 31.23601563 -16.02390625 32.10484375 -16 33 C-15.34 33 -14.68 33 -14 33 C-14 33.66 -14 34.32 -14 35 C-13.34 35 -12.68 35 -12 35 C-11.71382812 34.42765625 -11.42765625 33.8553125 -11.1328125 33.265625 C-9.421875 29.84375 -7.7109375 26.421875 -6 23 C-5.01 23 -4.02 23 -3 23 C-3.680625 23.825 -4.36125 24.65 -5.0625 25.5 C-6.87188285 28.20441565 -7.27810518 30.0074119 -7 33.25 C-6.38033159 36.91739507 -6.38033159 36.91739507 -4.375 38.5 C-0.31127351 39.35552137 3.16319847 39.97841507 6.97265625 37.94921875 C10.56274988 35.49618515 10.56274988 35.49618515 13 32 C11.35 32 9.7 32 8 32 C8 32.66 8 33.32 8 34 C2.80250991 37.14266843 2.80250991 37.14266843 -0.8125 36.5 C-3 35 -3 35 -3.8359375 32.6640625 C-4 30 -4 30 -2.70703125 27.8671875 C-2.08183594 27.20976563 -1.45664062 26.55234375 -0.8125 25.875 C0.10595703 24.88113281 0.10595703 24.88113281 1.04296875 23.8671875 C6.11208478 19.03078538 6.11208478 19.03078538 9.140625 18.92578125 C12.0703125 19.46289062 12.0703125 19.46289062 15 20 C14.505 18.515 14.505 18.515 14 17 C8.95334857 15.65777459 8.95334857 15.65777459 4.203125 17.046875 C2.7600912 18.31845924 1.37629924 19.65646979 0 21 C-0.66 21 -1.32 21 -2 21 C-2 20.34 -2 19.68 -2 19 C-0.34997172 17.64613064 1.3174387 16.31321858 3 15 C3.33 14.34 3.66 13.68 4 13 C5.32 13 6.64 13 8 13 C8.12375 12.38125 8.2475 11.7625 8.375 11.125 C9 9 9 9 11 7 C11.99 7.33 12.98 7.66 14 8 C12.68 8.99 11.36 9.98 10 11 C13.29075996 10.62095792 13.29075996 10.62095792 16 9 C18.875 8.6875 18.875 8.6875 22 9 C23.9375 10.6875 23.9375 10.6875 25 13 C24.67079713 17.44058089 23.1176901 19.41810632 19.875 22.375 C15.75017491 25.89925056 15.75017491 25.89925056 12.84765625 26.2890625 C10.9375 26 10.9375 26 8 25 C8 25.66 8 26.32 8 27 C10.40545638 28.20272819 11.94996953 28.10071472 14.625 28.0625 C15.44226562 28.05347656 16.25953125 28.04445313 17.1015625 28.03515625 C17.72804687 28.02355469 18.35453125 28.01195313 19 28 C18.34 28.99 17.68 29.98 17 31 C16.01 31 15.02 31 14 31 C14 31.66 14 32.32 14 33 C14.99 33.33 15.98 33.66 17 34 C16.195625 34.433125 15.39125 34.86625 14.5625 35.3125 C11.72153646 36.80474002 11.72153646 36.80474002 11 40 C11.66 40.33 12.32 40.66 13 41 C11 43 11 43 7.375 43.125 C6.26125 43.08375 5.1475 43.0425 4 43 C3.67 44.32 3.34 45.64 3 47 C15.76895472 47.2623589 15.76895472 47.2623589 28 44 C28.495 43.01 28.495 43.01 29 42 C29.928125 41.7525 30.85625 41.505 31.8125 41.25 C35.8787278 39.65540086 36.92457736 37.76650776 39 34 C40.15795477 30.52613568 40.16829849 27.72230696 40.1875 24.0625 C40.20167969 22.83660156 40.21585938 21.61070313 40.23046875 20.34765625 C40.01100929 17.15991466 39.4486507 15.73226524 38 13 C38.33 12.01 38.66 11.02 39 10 C43.08964519 17.39422456 44.49111944 24.1473562 42.375 32.453125 C39.7206656 39.42075279 35.07548152 43.65729123 28.703125 47.3203125 C21.78842837 50.39112498 15.394714 50.09435726 8.00878906 49.85766602 C1.13024861 49.74146516 -4.19825948 51.13217299 -10 55 C-10.66 55.66 -11.32 56.32 -12 57 C-13.1875 55.4375 -13.1875 55.4375 -14 53 C-13.02059602 50.65794699 -12.01965427 48.32481174 -11 46 C-11 41.08171231 -13.9208529 38.60485514 -17 35 C-19.94652565 29.80850242 -19.72928603 24.16187098 -18.41796875 18.4765625 C-15.68873773 10.37610512 -10.00406497 4.86416026 -2.4375 1 C-1.633125 0.67 -0.82875 0.34 0 0 Z " fill="#6615B0" transform="translate(24,6)"/>
<path d="M0 0 C0 4.62 0 9.24 0 14 C0.66 13.175 1.32 12.35 2 11.5 C6.02366618 8.14694485 7.90700467 8.56839023 13 9 C13.12375 9.721875 13.2475 10.44375 13.375 11.1875 C13.87463741 13.99578956 13.87463741 13.99578956 15.1875 16.3125 C16.43122789 20.42636917 15.41243883 22.9644605 14 27 C11 28 11 28 9 28 C9.33 29.32 9.66 30.64 10 32 C4.71502591 32.52849741 4.71502591 32.52849741 2 32 C-0.5 29 -0.5 29 -2 26 C-2.33 27.98 -2.66 29.96 -3 32 C-5.97 32 -8.94 32 -12 32 C-11.5233575 27.79137679 -11.04324056 23.58315691 -10.5625 19.375 C-10.42779297 18.18519531 -10.29308594 16.99539062 -10.15429688 15.76953125 C-10.02216797 14.61582031 -9.89003906 13.46210938 -9.75390625 12.2734375 C-9.63345947 11.21560059 -9.5130127 10.15776367 -9.38891602 9.06787109 C-8.5779409 2.67068761 -8.5779409 2.67068761 -8 0 C-6 -1 -6 -1 0 0 Z M10 13 C9.01 13.99 8.02 14.98 7 16 C7.33 16.66 7.66 17.32 8 18 C8.99 17.01 9.98 16.02 11 15 C10.67 14.34 10.34 13.68 10 13 Z M5 18 C6 20 6 20 6 20 Z M5 21 C5.33 21.99 5.66 22.98 6 24 C6 23.01 6 22.02 6 21 C5.67 21 5.34 21 5 21 Z M7 24 C8 26 8 26 8 26 Z " fill="#6618AF" transform="translate(135,17)"/>
<path d="M0 0 C2.475 0.495 2.475 0.495 5 1 C4.67 2.32 4.34 3.64 4 5 C3.34 5 2.68 5 2 5 C2 5.66 2 6.32 2 7 C1.195625 7.474375 0.39125 7.94875 -0.4375 8.4375 C-3.2918076 9.79983672 -3.2918076 9.79983672 -4 13 C-5.32 13 -6.64 13 -8 13 C-8.2475 13.61875 -8.495 14.2375 -8.75 14.875 C-10.20628639 17.35068687 -11.37812506 17.95125002 -14 19 C-14 19.99 -14 20.98 -14 22 C-14.61359375 22.21398437 -15.2271875 22.42796875 -15.859375 22.6484375 C-18.80684189 24.50942937 -19.18456782 26.35260117 -20.25 29.625 C-20.58515625 30.62789062 -20.9203125 31.63078125 -21.265625 32.6640625 C-21.50796875 33.43492188 -21.7503125 34.20578125 -22 35 C-23.32 35 -24.64 35 -26 35 C-26 34.34 -26 33.68 -26 33 C-26.66 33 -27.32 33 -28 33 C-29.99384031 27.01847906 -29.73129783 21.01017059 -27.3125 15.1875 C-24.03295271 8.67427322 -19.38336863 5.19168432 -13 2 C-8.80428364 0.63639218 -5.3065192 1.24002602 -1 2 C-0.67 1.34 -0.34 0.68 0 0 Z " fill="#861BD7" transform="translate(36,6)"/>
<path d="M0 0 C2.33294775 -0.04241723 4.66702567 -0.04092937 7 0 C7.33 0.33 7.66 0.66 8 1 C7.93407275 3.12765213 7.79530033 5.25314991 7.625 7.375 C7.52574219 8.633125 7.42648438 9.89125 7.32421875 11.1875 C6.90414823 16.12712444 6.47334037 21.06517488 6 26 C8.31 26 10.62 26 13 26 C13 27.32 13 28.64 13 30 C8.38 30 3.76 30 -1 30 C-2.11629286 23.97701687 -1.96182839 18.28830429 -1.625 12.1875 C-1.58117187 11.23423828 -1.53734375 10.28097656 -1.4921875 9.29882812 C-1.13335512 2.26671024 -1.13335512 2.26671024 0 0 Z " fill="#771EB7" transform="translate(76,17)"/>
<path d="M0 0 C0.33 0 0.66 0 1 0 C1.495 5.445 1.495 5.445 2 11 C3.32 10.01 4.64 9.02 6 8 C6.66 8.33 7.32 8.66 8 9 C7.0409375 9.8971875 7.0409375 9.8971875 6.0625 10.8125 C3.79689611 12.90810337 3.79689611 12.90810337 3 16 C8.61 16 14.22 16 20 16 C20 15.01 20 14.02 20 13 C17.03 13 14.06 13 11 13 C11.66 11.68 12.32 10.36 13 9 C13.495 9.99 13.495 9.99 14 11 C18.455 10.505 18.455 10.505 23 10 C23.91892116 13.67568464 23.95904856 15.16380575 23 19 C4.52 19 -13.96 19 -33 19 C-33.99 17.02 -34.98 15.04 -36 13 C-34.02 12.34 -32.04 11.68 -30 11 C-30 12.32 -30 13.64 -30 15 C-27.75006641 15.02707139 -25.50003905 15.04642829 -23.25 15.0625 C-21.37054688 15.07990234 -21.37054688 15.07990234 -19.453125 15.09765625 C-16.71463499 15.02021027 -14.58119707 14.82780815 -12 14 C-12 14.66 -12 15.32 -12 16 C-12.66 16.33 -13.32 16.66 -14 17 C-11.36 17.33 -8.72 17.66 -6 18 C-5.67 17.34 -5.34 16.68 -5 16 C-3.68 16 -2.36 16 -1 16 C-0.67 10.72 -0.34 5.44 0 0 Z " fill="#4C2076" transform="translate(180,31)"/>
<path d="M0 0 C0.33 0.66 0.66 1.32 1 2 C0.33613281 2.36351562 -0.32773437 2.72703125 -1.01171875 3.1015625 C-7.38772075 6.73169502 -12.26983385 9.72903041 -15.1171875 16.7578125 C-16.07670727 20.28171255 -16.19936681 23.23102649 -16.125 26.875 C-16.10695313 28.02742188 -16.08890625 29.17984375 -16.0703125 30.3671875 C-16.04710937 31.23601563 -16.02390625 32.10484375 -16 33 C-15.34 33 -14.68 33 -14 33 C-13.34 34.98 -12.68 36.96 -12 39 C-11.34 39 -10.68 39 -10 39 C-8.50501087 41.98997825 -8.88422554 44.70042775 -9 48 C-9.33 48.99 -9.66 49.98 -10 51 C-8.865625 50.505 -7.73125 50.01 -6.5625 49.5 C-1.09478622 47.63699134 4.05621967 47.86309041 9.74853516 47.98608398 C15.16126234 48.07795743 19.76787909 47.50756026 25 46 C26.33208911 45.66172868 27.66512122 45.3270895 29 45 C29 44.34 29 43.68 29 43 C29.9075 42.62875 30.815 42.2575 31.75 41.875 C36.33258407 39.2312015 38.34539519 35.96381443 40 31 C40.12070269 28.68980664 40.175363 26.3758126 40.1875 24.0625 C40.20167969 22.83660156 40.21585938 21.61070313 40.23046875 20.34765625 C40.01100929 17.15991466 39.4486507 15.73226524 38 13 C38.33 12.01 38.66 11.02 39 10 C43.08964519 17.39422456 44.49111944 24.1473562 42.375 32.453125 C39.7206656 39.42075279 35.07548152 43.65729123 28.703125 47.3203125 C21.78842837 50.39112498 15.394714 50.09435726 8.00878906 49.85766602 C1.13024861 49.74146516 -4.19825948 51.13217299 -10 55 C-10.66 55.66 -11.32 56.32 -12 57 C-13.1875 55.4375 -13.1875 55.4375 -14 53 C-13.02059602 50.65794699 -12.01965427 48.32481174 -11 46 C-11 41.08171231 -13.9208529 38.60485514 -17 35 C-19.94652565 29.80850242 -19.72928603 24.16187098 -18.41796875 18.4765625 C-15.68873773 10.37610512 -10.00406497 4.86416026 -2.4375 1 C-1.633125 0.67 -0.82875 0.34 0 0 Z " fill="#4E1A89" transform="translate(24,6)"/>
<path d="M0 0 C4.90231339 0.03497489 8.78384313 0.52686879 13.375 2.1875 C14.365 2.5175 15.355 2.8475 16.375 3.1875 C16.9009375 2.4140625 16.9009375 2.4140625 17.4375 1.625 C19.375 0.1875 19.375 0.1875 23.0625 0.5 C24.155625 0.726875 25.24875 0.95375 26.375 1.1875 C26.87 3.6625 26.87 3.6625 27.375 6.1875 C26.385 6.1875 25.395 6.1875 24.375 6.1875 C24.375 5.1975 24.375 4.2075 24.375 3.1875 C23.055 3.1875 21.735 3.1875 20.375 3.1875 C20.045 4.1775 19.715 5.1675 19.375 6.1875 C17.3125 6.875 17.3125 6.875 15.375 7.1875 C15.25125 8.26 15.1275 9.3325 15 10.4375 C14.47856064 13.56613615 13.97411746 15.52230424 12.375 18.1875 C13.035 18.1875 13.695 18.1875 14.375 18.1875 C14.705 19.1775 15.035 20.1675 15.375 21.1875 C14.385 21.1875 13.395 21.1875 12.375 21.1875 C10.1875 18.6875 10.1875 18.6875 8.375 16.1875 C9.365 15.07375 9.365 15.07375 10.375 13.9375 C12.76711447 11.21507055 12.76711447 11.21507055 12.375 7.1875 C8.60277911 5.43586544 5.708361 4.96259973 1.5625 5.0625 C-1.0053125 5.124375 -1.0053125 5.124375 -3.625 5.1875 C-4.285 9.1475 -4.945 13.1075 -5.625 17.1875 C-8.625 14.1875 -8.625 14.1875 -8.9375 10.875 C-8.29255274 3.26462233 -7.71026641 0.04783044 0 0 Z " fill="#552281" transform="translate(156.625,16.8125)"/>
<path d="M0 0 C0 3.10551666 -0.5393715 4.35261084 -2 7 C-1.401875 6.814375 -0.80375 6.62875 -0.1875 6.4375 C2 6 2 6 5 7 C5 7.66 5 8.32 5 9 C6.32 9.33 7.64 9.66 9 10 C9 10.99 9 11.98 9 13 C8.38640625 13.21398438 7.7728125 13.42796875 7.140625 13.6484375 C4.19315811 15.50942937 3.81543218 17.35260117 2.75 20.625 C2.41484375 21.62789062 2.0796875 22.63078125 1.734375 23.6640625 C1.49203125 24.43492188 1.2496875 25.20578125 1 26 C-0.32 26 -1.64 26 -3 26 C-3 25.34 -3 24.68 -3 24 C-3.66 24 -4.32 24 -5 24 C-7.38363694 16.84908917 -6.28719598 10.48455462 -3.0703125 3.8125 C-2 2 -2 2 0 0 Z " fill="#8019CB" transform="translate(13,15)"/>
<path d="M0 0 C0.125 6.625 0.125 6.625 -1 10 C-1.66 10.66 -2.32 11.32 -3 12 C-3.16717199 14.04389121 -3.16717199 14.04389121 -3 16.3125 C-2.92881262 19.99644708 -2.98944085 22.78310536 -5 26 C-7.078125 26.625 -7.078125 26.625 -9 27 C-9.02922646 23.62501842 -9.04687468 20.25006979 -9.0625 16.875 C-9.07087891 15.92367187 -9.07925781 14.97234375 -9.08789062 13.9921875 C-9.12153453 4.30274254 -9.12153453 4.30274254 -8 0 C-5.13822943 -1.43088528 -3.06624227 -0.59991697 0 0 Z " fill="#6724AC" transform="translate(135,17)"/>
<path d="M0 0 C2.33294775 -0.04241723 4.66702567 -0.04092937 7 0 C8 1 8 1 8.0625 4.5625 C8.041875 5.696875 8.02125 6.83125 8 8 C6.35 8.33 4.7 8.66 3 9 C3.99 9.33 4.98 9.66 6 10 C7.8125 12.3125 7.8125 12.3125 9 15 C8.36328125 17.12109375 8.36328125 17.12109375 7 19 C4.8359375 19.609375 4.8359375 19.609375 2.375 19.75 C1.55773437 19.80671875 0.74046875 19.8634375 -0.1015625 19.921875 C-0.72804687 19.94765625 -1.35453125 19.9734375 -2 20 C-3.38017078 15.44543643 -2.32587846 12.4748398 -1 8 C-1.33 7.01 -1.66 6.02 -2 5 C-1.0625 2.3125 -1.0625 2.3125 0 0 Z " fill="#511F7B" transform="translate(157,24)"/>
<path d="M0 0 C2.30432645 2.14763225 4.21109808 4.41118258 6 7 C5.40703125 6.69320313 4.8140625 6.38640625 4.203125 6.0703125 C1.54170348 4.7773524 -1.18339192 3.89619348 -4 3 C-3.67 3.495 -3.34 3.99 -3 4.5 C-1.56363642 8.09090894 -1.87148538 11.14456127 -2 15 C-2.66 15 -3.32 15 -4 15 C-3.979375 14.0925 -3.95875 13.185 -3.9375 12.25 C-3.98951889 9.54501751 -4.29177628 7.56521977 -5 5 C-6.41377782 4.63447197 -7.83120576 4.28304505 -9.25 3.9375 C-10.03890625 3.74027344 -10.8278125 3.54304687 -11.640625 3.33984375 C-14.10394822 2.98502733 -15.65604132 3.23122456 -18 4 C-18 3.34 -18 2.68 -18 2 C-17.34 1.67 -16.68 1.34 -16 1 C-15.67 0.01 -15.34 -0.98 -15 -2 C-16.65 -2.33 -18.3 -2.66 -20 -3 C-20.33 -2.01 -20.66 -1.02 -21 0 C-24.3 -0.33 -27.6 -0.66 -31 -1 C-31 -1.66 -31 -2.32 -31 -3 C-20.53388949 -5.96539798 -9.5582711 -5.72818375 0 0 Z " fill="#7026B2" transform="translate(56,9)"/>
<path d="M0 0 C0.66 0.33 1.32 0.66 2 1 C1.319375 1.825 0.63875 2.65 -0.0625 3.5 C-1.87188285 6.20441565 -2.27810518 8.0074119 -2 11.25 C-1.38033159 14.91739507 -1.38033159 14.91739507 0.625 16.5 C5.46005527 17.51790637 9.73957972 17.72666898 14 15 C13.67 16.32 13.34 17.64 13 19 C11.20841511 19.02696365 9.41671527 19.04637917 7.625 19.0625 C6.62726562 19.07410156 5.62953125 19.08570312 4.6015625 19.09765625 C2 19 2 19 0 18 C-0.33 19.32 -0.66 20.64 -1 22 C-1.66 22 -2.32 22 -3 22 C-3 23.98 -3 25.96 -3 28 C-1.68 27.67 -0.36 27.34 1 27 C1 26.34 1 25.68 1 25 C1.99 25.33 2.98 25.66 4 26 C3.67 26.66 3.34 27.32 3 28 C0.93734178 28.3911938 -1.09443267 28.50674519 -3.1875 28.65625 C-3.785625 28.7696875 -4.38375 28.883125 -5 29 C-5.33 29.66 -5.66 30.32 -6 31 C-6 28 -6 28 -5 26 C-4.93049459 24.45976004 -4.91547643 22.91665012 -4.9375 21.375 C-4.94652344 20.55773437 -4.95554687 19.74046875 -4.96484375 18.8984375 C-4.97644531 18.27195312 -4.98804688 17.64546875 -5 17 C-5.66 17 -6.32 17 -7 17 C-7.66 15.68 -8.32 14.36 -9 13 C-8.34 13 -7.68 13 -7 13 C-5.981712 10.96799031 -4.96766307 8.93422791 -3.96484375 6.89453125 C-3.62582031 6.20746094 -3.28679688 5.52039062 -2.9375 4.8125 C-2.59589844 4.11769531 -2.25429688 3.42289063 -1.90234375 2.70703125 C-1 1 -1 1 0 0 Z " fill="#6F19AD" transform="translate(19,28)"/>
<path d="M0 0 C5 0 5 0 7.625 1.5625 C12.29871569 6.35920821 13.17078478 10.43527987 13.1875 16.9375 C13.1397912 18.62548293 13.0823499 20.31335214 13 22 C11.2175082 18.66688525 10.51207144 15.75519057 10 12 C8.35 11.67 6.7 11.34 5 11 C4.34 12.32 3.68 13.64 3 15 C2.01 14.01 1.02 13.02 0 12 C0.66 12 1.32 12 2 12 C1.34 8.04 0.68 4.08 0 0 Z " fill="#8421CC" transform="translate(52,12)"/>
<path d="M0 0 C7.26 0 14.52 0 22 0 C21.02110903 4.89445486 20.69619394 5.78471534 17.5 9.125 C15.19456631 11.55326417 14.07463802 12.77608595 13 16 C11.68 16 10.36 16 9 16 C9.31499133 12.43009831 10.26045234 10.45920452 12.5625 7.8125 C15.21831018 5.36839843 15.21831018 5.36839843 15 3 C13.50146484 2.92652344 13.50146484 2.92652344 11.97265625 2.8515625 C10.03712891 2.73941406 10.03712891 2.73941406 8.0625 2.625 C6.13083984 2.52058594 6.13083984 2.52058594 4.16015625 2.4140625 C2.59587891 2.20910156 2.59587891 2.20910156 1 2 C0.67 1.34 0.34 0.68 0 0 Z " fill="#5D2690" transform="translate(185,26)"/>
<path d="M0 0 C1.98 0 3.96 0 6 0 C4.125 7.75 4.125 7.75 3 10 C2.93049459 11.54023996 2.91547643 13.08334988 2.9375 14.625 C2.94652344 15.44226562 2.95554687 16.25953125 2.96484375 17.1015625 C2.97644531 17.72804688 2.98804687 18.35453125 3 19 C1.35 19 -0.3 19 -2 19 C-2.05428973 16.77110504 -2.09292338 14.54182529 -2.125 12.3125 C-2.15980469 10.45044922 -2.15980469 10.45044922 -2.1953125 8.55078125 C-2.01032021 5.18762143 -1.45767895 3.0014413 0 0 Z " fill="#7319BF" transform="translate(105,28)"/>
<path d="M0 0 C0.33 0.66 0.66 1.32 1 2 C0.33613281 2.36351562 -0.32773437 2.72703125 -1.01171875 3.1015625 C-7.38772075 6.73169502 -12.26983385 9.72903041 -15.1171875 16.7578125 C-16.07670727 20.28171255 -16.19936681 23.23102649 -16.125 26.875 C-16.10695313 28.02742188 -16.08890625 29.17984375 -16.0703125 30.3671875 C-16.04710937 31.23601563 -16.02390625 32.10484375 -16 33 C-15.34 33 -14.68 33 -14 33 C-13.34 34.98 -12.68 36.96 -12 39 C-11.34 39 -10.68 39 -10 39 C-8.47508002 42.04983996 -8.76437452 44.6423369 -9 48 C-10.515625 49.72265625 -10.515625 49.72265625 -12 51 C-11.85820312 50.43152344 -11.71640625 49.86304688 -11.5703125 49.27734375 C-10.59976517 44.4739349 -10.59976517 44.4739349 -12.19921875 40.01953125 C-13.27584987 38.83862593 -14.37526063 37.6780994 -15.49609375 36.5390625 C-18.59401733 33.36871992 -19.13540263 30.08781553 -19.375 25.8125 C-19.16819959 19.26019215 -17.34453272 13.62480893 -12.94140625 8.6953125 C-8.95339591 5.02338392 -5.02061616 2.05973996 0 0 Z " fill="#5F248F" transform="translate(24,6)"/>
<path d="M0 0 C2.31 0 4.62 0 7 0 C7.18451025 13.6332574 7.18451025 13.6332574 6 20 C4.35 20 2.7 20 1 20 C1.08378906 19.443125 1.16757813 18.88625 1.25390625 18.3125 C1.96905315 12.95342448 2.04504254 8.32021659 1 3 C0.34 2.67 -0.32 2.34 -1 2 C-0.67 1.34 -0.34 0.68 0 0 Z " fill="#791CC3" transform="translate(115,27)"/>
<path d="M0 0 C0.33 0 0.66 0 1 0 C1 5.94 1 11.88 1 18 C5.62 18 10.24 18 15 18 C15 16.68 15 15.36 15 14 C12.69 14 10.38 14 8 14 C8 13.67 8 13.34 8 13 C9.45742463 12.91903197 10.91612807 12.86082226 12.375 12.8125 C13.18710938 12.77769531 13.99921875 12.74289063 14.8359375 12.70703125 C15.55007812 12.80371094 16.26421875 12.90039062 17 13 C19 16 19 16 19 19 C20.98 19 22.96 19 25 19 C25 19.33 25 19.66 25 20 C16.09 20 7.18 20 -2 20 C-1.34 13.4 -0.68 6.8 0 0 Z " fill="#552188" transform="translate(74,29)"/>
<path d="M0 0 C0.66 0 1.32 0 2 0 C2.061875 0.886875 2.12375 1.77375 2.1875 2.6875 C3.18171055 6.74081992 4.90101124 8.29831749 8 11 C-3.52164009 12.33257403 -3.52164009 12.33257403 -9 11 C-8.67 9.35 -8.34 7.7 -8 6 C-5.69 6 -3.38 6 -1 6 C-1 5.34 -1 4.68 -1 4 C-0.68521554 2.66216607 -0.35412344 1.32796291 0 0 Z " fill="#740EC2" transform="translate(36,42)"/>
<path d="M0 0 C1.37478516 0.01740234 1.37478516 0.01740234 2.77734375 0.03515625 C3.69644531 0.04417969 4.61554688 0.05320312 5.5625 0.0625 C6.27277344 0.07410156 6.98304688 0.08570312 7.71484375 0.09765625 C7.71484375 1.41765625 7.71484375 2.73765625 7.71484375 4.09765625 C5.07484375 4.42765625 2.43484375 4.75765625 -0.28515625 5.09765625 C-0.94515625 9.05765625 -1.60515625 13.01765625 -2.28515625 17.09765625 C-5.28515625 14.09765625 -5.28515625 14.09765625 -5.59765625 10.78515625 C-4.70068402 0.20088393 -4.70068402 0.20088393 0 0 Z " fill="#4A2A6B" transform="translate(153.28515625,16.90234375)"/>
<path d="M0 0 C0.66 0 1.32 0 2 0 C1.34 6.93 0.68 13.86 0 21 C-3.3 21 -6.6 21 -10 21 C-8.68 20.34 -7.36 19.68 -6 19 C-6.061875 18.278125 -6.12375 17.55625 -6.1875 16.8125 C-5.96406005 13.46090075 -4.80502113 11.78274092 -3 9 C-3 8.34 -3 7.68 -3 7 C-2.34 7 -1.68 7 -1 7 C-0.67 4.69 -0.34 2.38 0 0 Z " fill="#5C1D93" transform="translate(174,28)"/>
<path d="M0 0 C0.99 0.33 1.98 0.66 3 1 C1.68 1.99 0.36 2.98 -1 4 C2.29075996 3.62095792 2.29075996 3.62095792 5 2 C7.875 1.6875 7.875 1.6875 11 2 C12.9375 3.6875 12.9375 3.6875 14 6 C13.9375 8.5625 13.9375 8.5625 13 11 C10.9375 12.8125 10.9375 12.8125 9 14 C9.33 13.443125 9.66 12.88625 10 12.3125 C11.1309601 9.69715478 11.15662974 7.8193354 11 5 C8.525 4.505 8.525 4.505 6 4 C5.67 4.825 5.34 5.65 5 6.5 C4.34 7.325 3.68 8.15 3 9 C1.02144978 9 -0.96039009 8.9891057 -2.93359375 8.84375 C-6.59783396 9.1208192 -8.41632014 11.53935252 -11 14 C-11.66 14 -12.32 14 -13 14 C-13 13.34 -13 12.68 -13 12 C-11.34997172 10.64613064 -9.6825613 9.31321858 -8 8 C-7.67 7.34 -7.34 6.68 -7 6 C-5.68 6 -4.36 6 -3 6 C-2.87625 5.38125 -2.7525 4.7625 -2.625 4.125 C-2 2 -2 2 0 0 Z " fill="#5C238A" transform="translate(35,13)"/>
<path d="M0 0 C0.66 0 1.32 0 2 0 C4.10020726 4.20041453 3.35832945 9.56668218 2.25 14 C1 16 1 16 -1.078125 16.625 C-1.71234375 16.74875 -2.3465625 16.8725 -3 17 C-3.08160748 15.10489301 -3.13946459 13.20875496 -3.1875 11.3125 C-3.22230469 10.25675781 -3.25710937 9.20101562 -3.29296875 8.11328125 C-2.96409165 4.61841396 -2.12293836 2.77061447 0 0 Z " fill="#7918C3" transform="translate(129,27)"/>
<path d="M0 0 C1.32 0.33 2.64 0.66 4 1 C4.02721176 2.89575251 4.04649136 4.79161979 4.0625 6.6875 C4.07410156 7.74324219 4.08570312 8.79898438 4.09765625 9.88671875 C4.00865425 12.72410262 3.64939838 15.2438919 3 18 C1.68 18 0.36 18 -1 18 C-2.4049404 14.10939581 -1.69513239 10.76907638 -1.0625 6.75 C-0.86785156 5.48671875 -0.67320313 4.2234375 -0.47265625 2.921875 C-0.31667969 1.95765625 -0.16070312 0.9934375 0 0 Z " fill="#831BC6" transform="translate(95,28)"/>
<path d="M0 0 C0 0.99 0 1.98 0 3 C-1.53125 4.38671875 -1.53125 4.38671875 -3.5 5.6875 C-4.1496875 6.12449219 -4.799375 6.56148437 -5.46875 7.01171875 C-6.22671875 7.50091797 -6.22671875 7.50091797 -7 8 C-7 6.35 -7 4.7 -7 3 C-7.99 3 -8.98 3 -10 3 C-10.4021875 4.2065625 -10.4021875 4.2065625 -10.8125 5.4375 C-11.204375 6.283125 -11.59625 7.12875 -12 8 C-12.99 8.33 -13.98 8.66 -15 9 C-14.690625 9.928125 -14.690625 9.928125 -14.375 10.875 C-14.25125 11.57625 -14.1275 12.2775 -14 13 C-14.66 13.66 -15.32 14.32 -16 15 C-17.00496852 11.98509443 -17.10335303 9.95818308 -17.0625 6.8125 C-17.05347656 5.91144531 -17.04445312 5.01039062 -17.03515625 4.08203125 C-17.02355469 3.39496094 -17.01195312 2.70789063 -17 2 C-16.01 1.67 -15.02 1.34 -14 1 C-13.67 2.32 -13.34 3.64 -13 5 C-12.34 4.175 -11.68 3.35 -11 2.5 C-6.97633382 -0.85305515 -5.09299533 -0.43160977 0 0 Z " fill="#6420AD" transform="translate(148,26)"/>
<path d="M0 0 C0.66 3.3 1.32 6.6 2 10 C-0.1875 11.625 -0.1875 11.625 -3 13 C-5.8125 12.1875 -5.8125 12.1875 -8 11 C-7.72253472 6.28309024 -5.62886998 4.24197448 -2.375 1.13671875 C-1 0 -1 0 0 0 Z " fill="#7013BC" transform="translate(30,28)"/>
<path d="M0 0 C4.55555556 0.55555556 4.55555556 0.55555556 6 2 C6.32941634 5.04710112 6.21479196 6.62155702 4.6875 9.3125 C4.130625 9.869375 3.57375 10.42625 3 11 C2.01 11 1.02 11 0 11 C-0.12375 10.360625 -0.2475 9.72125 -0.375 9.0625 C-0.58125 8.381875 -0.7875 7.70125 -1 7 C-1.66 6.67 -2.32 6.34 -3 6 C-2.42655063 3.13275314 -2.1385485 2.1385485 0 0 Z " fill="#771EC0" transform="translate(41,16)"/>
<path d="M0 0 C2.31 0 4.62 0 7 0 C4 2 4 2 2 3 C0.68139486 6.59778356 0.68321738 10.45893187 0.4375 14.25 C0.35371094 15.51328125 0.26992187 16.7765625 0.18359375 18.078125 C0.12300781 19.04234375 0.06242187 20.0065625 0 21 C1.65 21 3.3 21 5 21 C4.95875 19.72125 4.9175 18.4425 4.875 17.125 C4.8046875 14.9453125 4.8046875 14.9453125 5 13 C5.66 12.34 6.32 11.68 7 11 C6.67 14.96 6.34 18.92 6 23 C3.36 23 0.72 23 -2 23 C-1.85823579 20.29139876 -1.71171784 17.58319248 -1.5625 14.875 C-1.50352539 13.73417969 -1.50352539 13.73417969 -1.44335938 12.5703125 C-1.20490998 8.31490797 -0.79769763 4.19629174 0 0 Z " fill="#58208C" transform="translate(103,26)"/>
<path d="M0 0 C0.78375 0.04125 1.5675 0.0825 2.375 0.125 C3 3.5 3 3.5 3.375 7.125 C1.375 9.125 1.375 9.125 -1.125 9.4375 C-2.3625 9.2828125 -2.3625 9.2828125 -3.625 9.125 C-5.625 6.125 -5.625 6.125 -5.375 4.0625 C-4.18810422 0.99635257 -3.30894866 0.15756898 0 0 Z " fill="#5C238B" transform="translate(99.625,15.875)"/>
<path d="M0 0 C3.125 -0.4375 3.125 -0.4375 7 0 C9.38682039 2.06581634 11.20049043 4.41608882 13 7 C12.40703125 6.69320313 11.8140625 6.38640625 11.203125 6.0703125 C8.54170348 4.7773524 5.81660808 3.89619348 3 3 C3.495 3.7425 3.495 3.7425 4 4.5 C5.43636358 8.09090894 5.12851462 11.14456127 5 15 C4.34 15 3.68 15 3 15 C3.020625 14.0925 3.04125 13.185 3.0625 12.25 C3.02588119 8.5051771 3.02588119 8.5051771 2 5 C-0.08034294 3.8624787 -0.08034294 3.8624787 -2.5625 3.25 C-3.38878906 3.00765625 -4.21507812 2.7653125 -5.06640625 2.515625 C-5.70449219 2.34546875 -6.34257813 2.1753125 -7 2 C-7 1.67 -7 1.34 -7 1 C-4.69 1.33 -2.38 1.66 0 2 C0 1.34 0 0.68 0 0 Z " fill="#6C22A6" transform="translate(49,9)"/>
<path d="M0 0 C0.33 1.32 0.66 2.64 1 4 C4.96 4 8.92 4 13 4 C13.33 4.66 13.66 5.32 14 6 C12.68 6 11.36 6 10 6 C10 6.66 10 7.32 10 8 C6.04 8 2.08 8 -2 8 C-2.99 6.02 -3.98 4.04 -5 2 C-3.35 1.34 -1.7 0.68 0 0 Z " fill="#472567" transform="translate(149,42)"/>
<path d="M0 0 C1.25985286 3.77955857 0.64024579 6.84423452 0.0625 10.6875 C-0.03740234 11.38939453 -0.13730469 12.09128906 -0.24023438 12.81445312 C-0.48729325 14.54386527 -0.74282852 16.2720627 -1 18 C0.32 18 1.64 18 3 18 C3.66 16.68 4.32 15.36 5 14 C5.33 14 5.66 14 6 14 C6 15.98 6 17.96 6 20 C3.03 20 0.06 20 -3 20 C-2.69281231 16.85356299 -2.379518 13.70794811 -2.0625 10.5625 C-1.97548828 9.66466797 -1.88847656 8.76683594 -1.79882812 7.84179688 C-1.71181641 6.98779297 -1.62480469 6.13378906 -1.53515625 5.25390625 C-1.456604 4.46314697 -1.37805176 3.6723877 -1.29711914 2.85766602 C-1 1 -1 1 0 0 Z " fill="#58218B" transform="translate(126,29)"/>
<path d="M0 0 C4.43624673 5.44448462 5.44582538 10.22929787 5.32421875 17.1328125 C4.83421469 21.46610144 3.50064485 25.40375489 1 29 C0.01 29.33 -0.98 29.66 -2 30 C-1.71125 29.443125 -1.4225 28.88625 -1.125 28.3125 C1.31328573 23.30046823 2.27416651 19.58642191 2.25 13.9375 C2.25515625 12.72964844 2.2603125 11.52179687 2.265625 10.27734375 C2.01339727 7.16529865 1.48923133 5.65343202 0 3 C0 2.01 0 1.02 0 0 Z " fill="#622595" transform="translate(62,16)"/>
<path d="M0 0 C1.32 0 2.64 0 4 0 C3.94004678 1.79260132 3.8512759 3.58425795 3.75 5.375 C3.70359375 6.37273438 3.6571875 7.37046875 3.609375 8.3984375 C3 11 3 11 0.953125 12.3515625 C0.30859375 12.56554688 -0.3359375 12.77953125 -1 13 C-1.02696365 11.20841511 -1.04637917 9.41671527 -1.0625 7.625 C-1.07410156 6.62726562 -1.08570312 5.62953125 -1.09765625 4.6015625 C-1 2 -1 2 0 0 Z " fill="#851DCD" transform="translate(78,19)"/>
<path d="M0 0 C0.66 0 1.32 0 2 0 C3.5078125 2.08203125 3.5078125 2.08203125 5.125 4.8125 C5.66382813 5.70582031 6.20265625 6.59914063 6.7578125 7.51953125 C8 10 8 10 8 13 C5.36 13 2.72 13 0 13 C-1.98 9.535 -1.98 9.535 -4 6 C-0.125 7.75 -0.125 7.75 1 10 C1.99 10.33 2.98 10.66 4 11 C2.7874262 7.27566618 1.49140021 3.62197194 0 0 Z " fill="#531C8E" transform="translate(137,36)"/>
<path d="M0 0 C1.32 0.33 2.64 0.66 4 1 C4 2.65 4 4.3 4 6 C3.34 6 2.68 6 2 6 C1.67 8.31 1.34 10.62 1 13 C-0.32 13 -1.64 13 -3 13 C-2.855625 12.484375 -2.71125 11.96875 -2.5625 11.4375 C-1.91982899 8.81874845 -1.91982899 8.81874845 -1.5 5.375 C-1 2 -1 2 0 0 Z " fill="#751EBD" transform="translate(172,22)"/>
<path d="M0 0 C2.33294775 -0.04241723 4.66702567 -0.04092937 7 0 C7.33 0.33 7.66 0.66 8 1 C7.79284028 8.0245978 7.15555777 15.0666534 6 22 C5.67 22 5.34 22 5 22 C4.97277483 19.79173622 4.95350271 17.58337362 4.9375 15.375 C4.92589844 14.14523438 4.91429688 12.91546875 4.90234375 11.6484375 C4.99136076 8.32276209 5.36313913 5.25952412 6 2 C3.69 2.33 1.38 2.66 -1 3 C-0.67 2.01 -0.34 1.02 0 0 Z " fill="#5A2190" transform="translate(76,17)"/>
<path d="M0 0 C0.66 0.33 1.32 0.66 2 1 C1.4225 1.53109375 0.845 2.0621875 0.25 2.609375 C-0.4925 3.31578125 -1.235 4.0221875 -2 4.75 C-2.7425 5.44609375 -3.485 6.1421875 -4.25 6.859375 C-6.42195334 9.05531957 -6.42195334 9.05531957 -6 13 C-3.21176345 14.0326802 -2.1322726 14.04509293 0.75 13.0625 C1.4925 12.711875 2.235 12.36125 3 12 C3 12.66 3 13.32 3 14 C-2.19749009 17.14266843 -2.19749009 17.14266843 -5.8125 16.5 C-8 15 -8 15 -8.84375 12.66796875 C-9 10 -9 10 -7.63671875 7.83203125 C-6.99347656 7.16558594 -6.35023437 6.49914063 -5.6875 5.8125 C-5.05199219 5.13832031 -4.41648437 4.46414062 -3.76171875 3.76953125 C-2.50928982 2.51154831 -1.25520901 1.25520901 0 0 Z " fill="#5A1F8A" transform="translate(29,26)"/>
<path d="M0 0 C7.26 0 14.52 0 22 0 C21.67 1.65 21.34 3.3 21 5 C20.01 5.495 20.01 5.495 19 6 C19.33 4.35 19.66 2.7 20 1 C18.98873047 1.24556641 18.98873047 1.24556641 17.95703125 1.49609375 C14.48632094 2.0875358 11.20677876 2.09539046 7.6875 2.0625 C6.43324219 2.05347656 5.17898437 2.04445313 3.88671875 2.03515625 C2.93410156 2.02355469 1.98148438 2.01195312 1 2 C0.67 1.34 0.34 0.68 0 0 Z " fill="#5B2985" transform="translate(185,26)"/>
<path d="M0 0 C0.33 0 0.66 0 1 0 C1.33 4.62 1.66 9.24 2 14 C-0.64 14 -3.28 14 -6 14 C-7.25 7.375 -7.25 7.375 -5 4 C-5 5.98 -5 7.96 -5 10 C-4.01 10.33 -3.02 10.66 -2 11 C-1.34 7.37 -0.68 3.74 0 0 Z " fill="#5E18A6" transform="translate(99,34)"/>
<path d="M0 0 C1.4606285 2.64738916 2 3.89448334 2 7 C4.31 7 6.62 7 9 7 C9 8.32 9 9.64 9 11 C6.03 11 3.06 11 0 11 C0.99 10.34 1.98 9.68 3 9 C1.68 8.34 0.36 7.68 -1 7 C-1.04254356 5.00045254 -1.04080783 2.99958364 -1 1 C-0.67 0.67 -0.34 0.34 0 0 Z " fill="#6D1BB9" transform="translate(80,36)"/>
<path d="M0 0 C2.32948536 2.32948536 2.22479314 2.85721032 2.375 6 C2.53232795 8.11780241 2.53232795 8.11780241 3 10 C4.92064793 11.5899433 4.92064793 11.5899433 7 12 C5.02 12.66 3.04 13.32 1 14 C-1.61007735 10.08488397 -1.22006613 6.5480334 -1 2 C-0.67 1.34 -0.34 0.68 0 0 Z " fill="#7616C5" transform="translate(77,33)"/>
<path d="M0 0 C0.33 0 0.66 0 1 0 C1.33 3.63 1.66 7.26 2 11 C3.32 10.01 4.64 9.02 6 8 C6.66 8.33 7.32 8.66 8 9 C7.0409375 9.8971875 7.0409375 9.8971875 6.0625 10.8125 C3.79689611 12.90810337 3.79689611 12.90810337 3 16 C3.66 16.33 4.32 16.66 5 17 C3.35 17 1.7 17 0 17 C0 11.39 0 5.78 0 0 Z " fill="#581A84" transform="translate(180,31)"/>
<path d="M0 0 C0.99 0.33 1.98 0.66 3 1 C1.68 2.32 0.36 3.64 -1 5 C-0.67 5.99 -0.34 6.98 0 8 C-1.0725 8.2475 -2.145 8.495 -3.25 8.75 C-7.04588722 10.01529574 -8.39623817 11.1069313 -11 14 C-11.66 14 -12.32 14 -13 14 C-13 13.34 -13 12.68 -13 12 C-11.34997172 10.64613064 -9.6825613 9.31321858 -8 8 C-7.67 7.34 -7.34 6.68 -7 6 C-5.68 6 -4.36 6 -3 6 C-2.87625 5.38125 -2.7525 4.7625 -2.625 4.125 C-2 2 -2 2 0 0 Z " fill="#642499" transform="translate(35,13)"/>
<path d="M0 0 C0 3.3 0 6.6 0 10 C-1.32 10 -2.64 10 -4 10 C-4.75 7.25 -4.75 7.25 -5 4 C-1.84210526 0 -1.84210526 0 0 0 Z " fill="#701ABF" transform="translate(148,32)"/>
<path d="M0 0 C1.65 0 3.3 0 5 0 C6.96263236 5.5415502 7.01603857 9.20858017 6 15 C6.99 15.66 7.98 16.32 9 17 C7.35 17 5.7 17 4 17 C2.90348177 13.58860997 3.05784527 10.79344419 3.4375 7.25 C3.53933594 6.26515625 3.64117187 5.2803125 3.74609375 4.265625 C3.87177734 3.14414062 3.87177734 3.14414062 4 2 C2.68 1.34 1.36 0.68 0 0 Z " fill="#601E9C" transform="translate(111,31)"/>
<path d="M0 0 C0.33 0 0.66 0 1 0 C1.07654536 4.51617599 1.10228696 8.59085217 0 13 C-1.32 13 -2.64 13 -4 13 C-4.93065133 10.39417629 -5.14917407 9.35801776 -4.0625 6.75 C-3.5365625 5.88375 -3.5365625 5.88375 -3 5 C-2.34 5 -1.68 5 -1 5 C-0.67 3.35 -0.34 1.7 0 0 Z " fill="#7719C2" transform="translate(98,33)"/>
<path d="M0 0 C2.01822917 0.06510417 4.03645833 0.13020833 6.0546875 0.1953125 C6.0546875 1.1853125 6.0546875 2.1753125 6.0546875 3.1953125 C4.5234375 4.58203125 4.5234375 4.58203125 2.5546875 5.8828125 C1.58015625 6.53830078 1.58015625 6.53830078 0.5859375 7.20703125 C0.080625 7.53316406 -0.4246875 7.85929687 -0.9453125 8.1953125 C-0.9453125 6.5453125 -0.9453125 4.8953125 -0.9453125 3.1953125 C-1.9353125 2.8653125 -2.9253125 2.5353125 -3.9453125 2.1953125 C-1.9453125 0.1953125 -1.9453125 0.1953125 0 0 Z " fill="#61278C" transform="translate(141.9453125,25.8046875)"/>
<path d="M0 0 C-0.77085938 0.33773437 -1.54171875 0.67546875 -2.3359375 1.0234375 C-3.33882812 1.46945313 -4.34171875 1.91546875 -5.375 2.375 C-6.87160156 3.03628906 -6.87160156 3.03628906 -8.3984375 3.7109375 C-11.08022479 4.86712444 -11.08022479 4.86712444 -13 7 C-13.66 5.68 -14.32 4.36 -15 3 C-14.34 2.01 -13.68 1.02 -13 0 C-12.67 0.66 -12.34 1.32 -12 2 C-11.07767578 1.65775391 -11.07767578 1.65775391 -10.13671875 1.30859375 C-9.32847656 1.02113281 -8.52023438 0.73367187 -7.6875 0.4375 C-6.48673828 0.00244141 -6.48673828 0.00244141 -5.26171875 -0.44140625 C-3 -1 -3 -1 0 0 Z " fill="#4D1878" transform="translate(25,56)"/>
<path d="M0 0 C0.99 0 1.98 0 3 0 C3.33 0.99 3.66 1.98 4 3 C5.49985609 4.66710346 5.49985609 4.66710346 7 6 C6.38125 6.598125 5.7625 7.19625 5.125 7.8125 C2.86323046 10.00811144 2.86323046 10.00811144 1 13 C0.34 12.34 -0.32 11.68 -1 11 C-0.34 11 0.32 11 1 11 C0.67 7.37 0.34 3.74 0 0 Z " fill="#851BD7" transform="translate(54,14)"/>
<path d="M0 0 C1.65 0 3.3 0 5 0 C5.33 1.32 5.66 2.64 6 4 C3.75 5.125 3.75 5.125 1 6 C-1.3125 5.125 -1.3125 5.125 -3 4 C-2.34 3.67 -1.68 3.34 -1 3 C-0.67 2.01 -0.34 1.02 0 0 Z " fill="#6C19AE" transform="translate(157,37)"/>
<path d="M0 0 C0.99 0.33 1.98 0.66 3 1 C3 2.32 3 3.64 3 5 C3.99 5.33 4.98 5.66 6 6 C3.75 8.0625 3.75 8.0625 1 10 C-1.3125 9.75 -1.3125 9.75 -3 9 C-2.01 8.67 -1.02 8.34 0 8 C1.01540112 3.89776415 1.01540112 3.89776415 0 0 Z " fill="#561D8E" transform="translate(38,22)"/>
<path d="M0 0 C0.66 1.32 1.32 2.64 2 4 C-1.83325617 6.70582788 -4.32538149 7.32613618 -9 7 C-9 6.01 -9 5.02 -9 4 C-8.13375 4.2784375 -8.13375 4.2784375 -7.25 4.5625 C-4.79307475 5.04023546 -3.35602466 4.75729364 -1 4 C-0.67 2.68 -0.34 1.36 0 0 Z " fill="#4E1A76" transform="translate(164,37)"/>
<path d="M0 0 C1.65 0.33 3.3 0.66 5 1 C4.6875 2.9375 4.6875 2.9375 4 5 C3.01 5.33 2.02 5.66 1 6 C0.34 5.67 -0.32 5.34 -1 5 C-0.67 3.35 -0.34 1.7 0 0 Z " fill="#7B28C5" transform="translate(97,18)"/>
<path d="M0 0 C1.5843317 0.08768248 3.16753567 0.19587329 4.75 0.3125 C6.07257812 0.39951172 6.07257812 0.39951172 7.421875 0.48828125 C10.32303774 1.0641181 11.79225607 2.07596148 14 4 C12.35 4 10.7 4 9 4 C9 4.66 9 5.32 9 6 C8.01 5.67 7.02 5.34 6 5 C6 4.34 6 3.68 6 3 C4.02 2.34 2.04 1.68 0 1 C0 0.67 0 0.34 0 0 Z " fill="#6926AE" transform="translate(40,5)"/>
<path d="M0 0 C0.33 0 0.66 0 1 0 C1 2.31 1 4.62 1 7 C2.32 6.67 3.64 6.34 5 6 C5 5.34 5 4.68 5 4 C5.99 4.33 6.98 4.66 8 5 C7.67 5.66 7.34 6.32 7 7 C4.93734178 7.3911938 2.90556733 7.50674519 0.8125 7.65625 C0.214375 7.7696875 -0.38375 7.883125 -1 8 C-1.33 8.66 -1.66 9.32 -2 10 C-2 6.38970831 -1.03907418 3.44193324 0 0 Z " fill="#6716B0" transform="translate(15,49)"/>
<path d="M0 0 C0.33 0.66 0.66 1.32 1 2 C2.65 1.34 4.3 0.68 6 0 C3.525 3.465 3.525 3.465 1 7 C-0.32 6.67 -1.64 6.34 -3 6 C-2.01 4.02 -1.02 2.04 0 0 Z " fill="#7117BC" transform="translate(57,41)"/>
<path d="M0 0 C0.66 0 1.32 0 2 0 C2 2.31 2 4.62 2 7 C0.68 7.33 -0.64 7.66 -2 8 C-2.125 5.125 -2.125 5.125 -2 2 C-1.34 1.34 -0.68 0.68 0 0 Z " fill="#8219CD" transform="translate(129,27)"/>
<path d="M0 0 C2.64 0 5.28 0 8 0 C6.75023244 3.65316671 6.32901247 4.78065836 3 7 C3 5.02 3 3.04 3 1 C2.01 1.33 1.02 1.66 0 2 C0 1.34 0 0.68 0 0 Z " fill="#552088" transform="translate(185,32)"/>
<path d="M0 0 C0.66 0 1.32 0 2 0 C1.40546697 9.59453303 1.40546697 9.59453303 -2 13 C-2.33 11.02 -2.66 9.04 -3 7 C-2.34 7 -1.68 7 -1 7 C-0.67 4.69 -0.34 2.38 0 0 Z " fill="#63239B" transform="translate(174,28)"/>
<path d="M0 0 C0.7734375 0.495 0.7734375 0.495 1.5625 1 C5.58257354 2.64926094 9.41742646 2.64926094 13.4375 1 C13.953125 0.67 14.46875 0.34 15 0 C14.67 1.32 14.34 2.64 14 4 C12.22950311 4.05410687 10.45853151 4.09284119 8.6875 4.125 C7.20830078 4.15980469 7.20830078 4.15980469 5.69921875 4.1953125 C3 4 3 4 0 2 C0 1.34 0 0.68 0 0 Z " fill="#581B8C" transform="translate(18,43)"/>
<path d="M0 0 C0.66 0.33 1.32 0.66 2 1 C1.67 1.99 1.34 2.98 1 4 C0.34 4 -0.32 4 -1 4 C-1 4.66 -1 5.32 -1 6 C-2.65 6 -4.3 6 -6 6 C-5.67 4.68 -5.34 3.36 -5 2 C-3.02 2.495 -3.02 2.495 -1 3 C-0.67 2.01 -0.34 1.02 0 0 Z " fill="#5D2190" transform="translate(182,22)"/>
<path d="M0 0 C1.98 0.495 1.98 0.495 4 1 C3.67 2.65 3.34 4.3 3 6 C1.68 6 0.36 6 -1 6 C-0.67 4.02 -0.34 2.04 0 0 Z " fill="#7D1DD1" transform="translate(43,18)"/>
<path d="M0 0 C0.33 0.66 0.66 1.32 1 2 C1.99 2 2.98 2 4 2 C3.67 4.64 3.34 7.28 3 10 C1.5 8.9375 1.5 8.9375 0 7 C-0.1875 3.3125 -0.1875 3.3125 0 0 Z " fill="#461D71" transform="translate(148,24)"/>
<path d="M0 0 C1.32 0 2.64 0 4 0 C3.67 1.32 3.34 2.64 3 4 C1.35 4.33 -0.3 4.66 -2 5 C-2.33 4.34 -2.66 3.68 -3 3 C-2.34 3 -1.68 3 -1 3 C-0.67 2.01 -0.34 1.02 0 0 Z " fill="#8A1BE1" transform="translate(22,10)"/>
<path d="M0 0 C0.99 0.33 1.98 0.66 3 1 C2.67 2.98 2.34 4.96 2 7 C-0.97 6.505 -0.97 6.505 -4 6 C-2.68 5.67 -1.36 5.34 0 5 C0 3.35 0 1.7 0 0 Z " fill="#591C7B" transform="translate(200,42)"/>
<path d="M0 0 C1.98 0 3.96 0 6 0 C6 0.66 6 1.32 6 2 C5.01 2.495 5.01 2.495 4 3 C3.67 3.99 3.34 4.98 3 6 C2.01 5.67 1.02 5.34 0 5 C0 3.35 0 1.7 0 0 Z " fill="#8523CE" transform="translate(105,28)"/>
<path d="M0 0 C3.63 0 7.26 0 11 0 C10.67 0.99 10.34 1.98 10 3 C6.7 2.67 3.4 2.34 0 2 C0 1.34 0 0.68 0 0 Z " fill="#7D26C2" transform="translate(25,6)"/>
<path d="M0 0 C1.32 0.33 2.64 0.66 4 1 C4 1.66 4 2.32 4 3 C3.34 3 2.68 3 2 3 C1.67 3.99 1.34 4.98 1 6 C0.01 5.34 -0.98 4.68 -2 4 C-1.34 2.68 -0.68 1.36 0 0 Z " fill="#7C15D1" transform="translate(25,34)"/>
<path d="M0 0 C2.31 0.33 4.62 0.66 7 1 C7.33 2.65 7.66 4.3 8 6 C7.01 6 6.02 6 5 6 C5 5.01 5 4.02 5 3 C4.34 3 3.68 3 3 3 C3 2.34 3 1.68 3 1 C2.01 0.67 1.02 0.34 0 0 Z " fill="#451F65" transform="translate(176,17)"/>
<path d="M0 0 C1.65 0.33 3.3 0.66 5 1 C4.67 2.32 4.34 3.64 4 5 C2.35 4.67 0.7 4.34 -1 4 C-0.67 2.68 -0.34 1.36 0 0 Z " fill="#851FD2" transform="translate(36,6)"/>
<path d="M0 0 C0 0.66 0 1.32 0 2 C-2.6875 3.625 -2.6875 3.625 -6 5 C-8.875 4.1875 -8.875 4.1875 -11 3 C-10.34 2.34 -9.68 1.68 -9 1 C-8.360625 1.165 -7.72125 1.33 -7.0625 1.5 C-6.381875 1.665 -5.70125 1.83 -5 2 C-2 0 -2 0 0 0 Z " fill="#4F1180" transform="translate(32,38)"/>
<path d="M0 0 C1.98 0.495 1.98 0.495 4 1 C3.67 2.32 3.34 3.64 3 5 C1.68 5 0.36 5 -1 5 C-0.67 3.35 -0.34 1.7 0 0 Z " fill="#6F22AD" transform="translate(159,25)"/>
<path d="M0 0 C0.66 0.33 1.32 0.66 2 1 C1.2884375 1.6496875 1.2884375 1.6496875 0.5625 2.3125 C-1.23686957 4.02309613 -1.23686957 4.02309613 -2 7 C-2.99 7 -3.98 7 -5 7 C-5.33 5.68 -5.66 4.36 -6 3 C-5.195625 2.690625 -4.39125 2.38125 -3.5625 2.0625 C-1.10919595 1.23664655 -1.10919595 1.23664655 0 0 Z " fill="#511A7B" transform="translate(40,15)"/>
<path d="M0 0 C0.5534764 2.07553648 1 3.84365964 1 6 C-0.32 6 -1.64 6 -3 6 C-3.66 4.68 -4.32 3.36 -5 2 C-3.35 1.34 -1.7 0.68 0 0 Z " fill="#4A1B78" transform="translate(149,42)"/>
<path d="M0 0 C0.66 0.66 1.32 1.32 2 2 C1.75 5.5625 1.75 5.5625 1 9 C0.01 9.495 0.01 9.495 -1 10 C-1.125 2.25 -1.125 2.25 0 0 Z " fill="#8416CE" transform="translate(77,33)"/>
<path d="M0 0 C0.66 0.66 1.32 1.32 2 2 C-0.64 4.64 -3.28 7.28 -6 10 C-6.66 9.67 -7.32 9.34 -8 9 C-5.36 6.03 -2.72 3.06 0 0 Z " fill="#5D1D8E" transform="translate(51,24)"/>
<path d="M0 0 C0 0.99 0 1.98 0 3 C-2.97 3 -5.94 3 -9 3 C-9 2.34 -9 1.68 -9 1 C-2.25 0 -2.25 0 0 0 Z " fill="#5F2F81" transform="translate(160,18)"/>
<path d="M0 0 C1.32 0 2.64 0 4 0 C3.1875 2.4375 3.1875 2.4375 2 5 C1.01 5.33 0.02 5.66 -1 6 C-1.042721 4.33388095 -1.04063832 2.66617115 -1 1 C-0.67 0.67 -0.34 0.34 0 0 Z " fill="#842ACA" transform="translate(129,18)"/>
<path d="M0 0 C0.33 1.32 0.66 2.64 1 4 C-1.97 4 -4.94 4 -8 4 C-8 3.01 -8 2.02 -8 1 C-5.36 1.66 -2.72 2.32 0 3 C0 2.01 0 1.02 0 0 Z " fill="#3C1B64" transform="translate(202,46)"/>
<path d="M0 0 C0.66 0.33 1.32 0.66 2 1 C-0.83430453 4.2542015 -2.68607774 5.5206753 -7 6 C-4.87944386 2.8191658 -3.36949443 1.68474722 0 0 Z " fill="#8120C6" transform="translate(21,9)"/>
<path d="M0 0 C1.32 0.33 2.64 0.66 4 1 C4 1.99 4 2.98 4 4 C2.68 4.33 1.36 4.66 0 5 C0 3.35 0 1.7 0 0 Z " fill="#7F12CA" transform="translate(183,34)"/>
<path d="M0 0 C1.65 0 3.3 0 5 0 C4.67 1.65 4.34 3.3 4 5 C3.34 5 2.68 5 2 5 C1.34 3.35 0.68 1.7 0 0 Z " fill="#6E259E" transform="translate(200,27)"/>
<path d="" fill="#004040" transform="translate(0,0)"/>
<path d="" fill="#000000" transform="translate(0,0)"/>
<path d="" fill="#000000" transform="translate(0,0)"/>
<path d="" fill="#000080" transform="translate(0,0)"/>
<path d="" fill="#000000" transform="translate(0,0)"/>
<path d="" fill="#000000" transform="translate(0,0)"/>
<path d="" fill="#000000" transform="translate(0,0)"/>
</svg>
